<svg xmlns="http://www.w3.org/2000/svg" xmlns:xlink="http://www.w3.org/1999/xlink" width="500" zoomAndPan="magnify" viewBox="0 0 375 374.999991" height="500" preserveAspectRatio="xMidYMid meet" version="1.0"><defs><clipPath id="8fc7a71b94"><path d="M 80.808594 141.3125 L 146.726562 141.3125 L 146.726562 300 L 80.808594 300 Z M 80.808594 141.3125 " clip-rule="nonzero"/></clipPath><clipPath id="fbc0fb60fe"><path d="M 80.808594 141.3125 L 146.71875 141.3125 L 146.71875 299.976562 L 80.808594 299.976562 Z M 80.808594 141.3125 " clip-rule="nonzero"/></clipPath><clipPath id="566c0b38d7"><path d="M 154.542969 139.769531 L 220.457031 139.769531 L 220.457031 228.769531 L 154.542969 228.769531 Z M 154.542969 139.769531 " clip-rule="nonzero"/></clipPath><clipPath id="05b80d8c68"><path d="M 154.542969 139.769531 L 220.449219 139.769531 L 220.449219 228.75 L 154.542969 228.75 Z M 154.542969 139.769531 " clip-rule="nonzero"/></clipPath><clipPath id="4c0aede89a"><path d="M 228.273438 69.226562 L 294.191406 69.226562 L 294.191406 227.917969 L 228.273438 227.917969 Z M 228.273438 69.226562 " clip-rule="nonzero"/></clipPath><clipPath id="a3a8df6592"><path d="M 228.273438 69.226562 L 294.179688 69.226562 L 294.179688 227.894531 L 228.273438 227.894531 Z M 228.273438 69.226562 " clip-rule="nonzero"/></clipPath></defs><path stroke-linecap="butt" transform="matrix(0, 1.751719, -1.751719, 0, 116.392408, 300.005692)" fill="none" stroke-linejoin="miter" d="M -0.0010196 1.499546 L 24.394654 1.499546 " stroke="#000000" stroke-width="3" stroke-opacity="1" stroke-miterlimit="4"/><g clip-path="url(#8fc7a71b94)"><path fill="#09ab67" d="M 80.808594 141.3125 L 146.726562 141.3125 L 146.726562 299.921875 L 80.808594 299.921875 Z M 80.808594 141.3125 " fill-opacity="1" fill-rule="nonzero"/></g><g clip-path="url(#fbc0fb60fe)"><path stroke-linecap="butt" transform="matrix(1.751719, 0, 0, 1.751719, 80.810325, 141.31064)" fill="none" stroke-linejoin="miter" d="M -0.000988197 0.00106209 L 37.624992 0.00106209 L 37.624992 90.577252 L -0.000988197 90.577252 Z M -0.000988197 0.00106209 " stroke="#000000" stroke-width="2.568904" stroke-opacity="1" stroke-miterlimit="4"/></g><path stroke-linecap="butt" transform="matrix(0.00000000305733, 1.751719, -1.751719, 0.00000000305733, 116.382609, 105.633581)" fill="none" stroke-linejoin="miter" d="M -0.000438751 1.500641 L 20.374631 1.500641 " stroke="#000000" stroke-width="3" stroke-opacity="1" stroke-miterlimit="4"/><g clip-path="url(#566c0b38d7)"><path fill="#ff3131" d="M 154.542969 139.769531 L 220.457031 139.769531 L 220.457031 228.859375 L 154.542969 228.859375 Z M 154.542969 139.769531 " fill-opacity="1" fill-rule="nonzero"/></g><g clip-path="url(#05b80d8c68)"><path stroke-linecap="butt" transform="matrix(1.751719, 0, 0, 1.751719, 154.543924, 139.769052)" fill="none" stroke-linejoin="miter" d="M -0.000545294 0.000273348 L 37.623205 0.000273348 L 37.623205 50.79635 L -0.000545294 50.79635 Z M -0.000545294 0.000273348 " stroke="#000000" stroke-width="2.568904" stroke-opacity="1" stroke-miterlimit="4"/></g><path stroke-linecap="butt" transform="matrix(0, 1.751719, -1.751719, 0, 190.500153, 88.583373)" fill="none" stroke-linejoin="miter" d="M -0.000765724 1.500845 L 29.222753 1.500845 " stroke="#000000" stroke-width="3" stroke-opacity="1" stroke-miterlimit="4"/><path stroke-linecap="butt" transform="matrix(0, 1.751719, -1.751719, 0, 190.494527, 226.951845)" fill="none" stroke-linejoin="miter" d="M 0.000730655 1.499863 L 13.681485 1.499863 " stroke="#000000" stroke-width="3" stroke-opacity="1" stroke-miterlimit="4"/><g clip-path="url(#4c0aede89a)"><path fill="#09ab67" d="M 228.273438 69.226562 L 294.191406 69.226562 L 294.191406 227.839844 L 228.273438 227.839844 Z M 228.273438 69.226562 " fill-opacity="1" fill-rule="nonzero"/></g><g clip-path="url(#a3a8df6592)"><path stroke-linecap="butt" transform="matrix(1.751719, 0, 0, 1.751719, 228.274017, 69.226035)" fill="none" stroke-linejoin="miter" d="M -0.000330652 0.00030133 L 37.623419 0.00030133 L 37.623419 90.578721 L -0.000330652 90.578721 Z M -0.000330652 0.00030133 " stroke="#000000" stroke-width="2.568904" stroke-opacity="1" stroke-miterlimit="4"/></g><path stroke-linecap="butt" transform="matrix(0, 1.751719, -1.751719, 0, 263.854264, 32.270564)" fill="none" stroke-linejoin="miter" d="M -0.000589678 1.50007 L 21.099215 1.50007 " stroke="#000000" stroke-width="3" stroke-opacity="1" stroke-miterlimit="4"/><path stroke-linecap="butt" transform="matrix(0, 1.751719, -1.751719, 0, 263.847906, 226.955111)" fill="none" stroke-linejoin="miter" d="M 0.00109593 1.5009 L 31.7623 1.5009 " stroke="#000000" stroke-width="3" stroke-opacity="1" stroke-miterlimit="4"/></svg>